<?xml version="1.0" encoding="utf-8"?>
<!-- Generator: Adobe Illustrator 25.0.0, SVG Export Plug-In . SVG Version: 6.00 Build 0)  -->
<svg version="1.1" id="图层_1" xmlns="http://www.w3.org/2000/svg" xmlns:xlink="http://www.w3.org/1999/xlink" x="0px" y="0px"
	 viewBox="0 0 1500 104.92" style="enable-background:new 0 0 1500 104.92;" xml:space="preserve">
<g>
	<path style="fill:#FED7A0;" d="M407.12,42.71c-7.75,11.36-25.18-2.12-16.47-12.41C398.93,19.92,414.76,32.08,407.12,42.71z"/>
	<path style="fill:#F8F6F1;" d="M454.57,69.92c-5.43,12.52-25.18,2.69-18.46-9.2C442.25,49.12,460.14,58.02,454.57,69.92z"/>
	<path style="fill:#F8F6F1;" d="M560.42,95.63c-0.46,13.5-22.41,11.77-20.54-1.83C541.28,80.82,561.25,82.38,560.42,95.63z"/>
	<path style="fill:#FED7A0;" d="M506.28,87.77c-2.95,13.19-24.21,7.4-19.84-5.63C490.3,69.63,509.54,74.94,506.28,87.77z"/>
	<path style="fill:#FED7A0;" d="M610.8,93.79c1.87,13.61-20.08,15.33-20.54,1.83C589.42,82.38,609.39,80.82,610.8,93.79z"/>
	<path style="fill:#F8F6F1;" d="M664.23,82.14c4.37,13.03-16.9,18.82-19.84,5.63C641.13,74.94,660.37,69.63,664.23,82.14z"/>
	<path style="fill:#F8F6F1;" d="M760.02,30.3c8.7,10.29-8.73,23.77-16.48,12.41C735.91,32.08,751.74,19.92,760.02,30.3z"/>
	<path style="fill:#FED7A0;" d="M714.56,60.73c6.72,11.88-13.03,21.72-18.46,9.19C690.53,58.02,708.42,49.12,714.56,60.73z"/>
	<g>
		<path style="fill:#FED7A0;" d="M760.12,42.71c-7.75,11.36-25.18-2.12-16.47-12.41C751.93,19.92,767.76,32.08,760.12,42.71z"/>
		<path style="fill:#F8F6F1;" d="M807.57,69.92c-5.43,12.52-25.18,2.69-18.46-9.2C795.25,49.12,813.14,58.02,807.57,69.92z"/>
		<path style="fill:#F8F6F1;" d="M913.41,95.63c-0.46,13.5-22.41,11.77-20.54-1.83C894.28,80.82,914.25,82.38,913.41,95.63z"/>
		<path style="fill:#FED7A0;" d="M859.27,87.77c-2.95,13.19-24.21,7.4-19.84-5.63C843.3,69.63,862.54,74.94,859.27,87.77z"/>
	</g>
	<g>
		<path style="fill:#FED7A0;" d="M963.79,93.79c1.87,13.61-20.08,15.33-20.54,1.83C942.42,82.38,962.38,80.82,963.79,93.79z"/>
		<path style="fill:#F8F6F1;" d="M1017.23,82.14c4.37,13.03-16.9,18.82-19.84,5.63C994.13,74.94,1013.37,69.63,1017.23,82.14z"/>
		<path style="fill:#F8F6F1;" d="M1113.02,30.3c8.7,10.29-8.73,23.77-16.48,12.41C1088.91,32.08,1104.74,19.92,1113.02,30.3z"/>
		<path style="fill:#FED7A0;" d="M1067.56,60.73c6.72,11.88-13.03,21.72-18.46,9.19C1043.53,58.02,1061.42,49.12,1067.56,60.73z"/>
	</g>
	<g>
		<path style="fill:#FED7A0;" d="M54.13,42.71c-7.75,11.36-25.18-2.12-16.47-12.41C45.93,19.92,61.76,32.08,54.13,42.71z"/>
		<path style="fill:#F8F6F1;" d="M101.57,69.92c-5.43,12.52-25.18,2.69-18.46-9.2C89.25,49.12,107.14,58.02,101.57,69.92z"/>
		<path style="fill:#F8F6F1;" d="M207.42,95.63c-0.46,13.5-22.41,11.77-20.54-1.83C188.28,80.82,208.25,82.38,207.42,95.63z"/>
		<path style="fill:#FED7A0;" d="M153.28,87.77c-2.95,13.19-24.21,7.4-19.84-5.63C137.3,69.63,156.54,74.94,153.28,87.77z"/>
	</g>
	<g>
		<path style="fill:#FED7A0;" d="M257.8,93.79c1.87,13.61-20.08,15.33-20.54,1.83C236.42,82.38,256.39,80.82,257.8,93.79z"/>
		<path style="fill:#F8F6F1;" d="M311.23,82.14c4.37,13.03-16.9,18.82-19.84,5.63C288.13,74.94,307.37,69.63,311.23,82.14z"/>
		<path style="fill:#F8F6F1;" d="M407.02,30.3c8.7,10.29-8.73,23.77-16.48,12.41C382.91,32.08,398.75,19.92,407.02,30.3z"/>
		<path style="fill:#FED7A0;" d="M361.56,60.73c6.72,11.88-13.03,21.72-18.46,9.19C337.53,58.02,355.42,49.12,361.56,60.73z"/>
	</g>
	<path style="fill:#E94754;" d="M405.74,69.39c-6.34,6.34-8.28,6.33-14.65-0.04c-10.53-10.53-36.25-28.62-36.25-46.6
		c0-15.29,9.68-22.75,22-22.75c13.05,0,22,17.15,22,17.15S407.78,0,420.84,0c12.32,0,22,7.46,22,22.75
		C442.84,40.76,416.35,58.78,405.74,69.39z"/>
	<path style="fill:#F9C7C7;" d="M759.65,69.39c-6.34,6.34-8.28,6.33-14.65-0.04c-10.53-10.53-36.25-28.62-36.25-46.6
		c0-15.29,9.68-22.75,22-22.75c13.05,0,22,17.15,22,17.15S761.7,0,774.75,0c12.32,0,22,7.46,22,22.75
		C796.75,40.76,770.26,58.78,759.65,69.39z"/>
	<path style="fill:#F8F6F1;" d="M51.27,30.3c8.7,10.29-8.73,23.77-16.48,12.41C27.16,32.08,43,19.92,51.27,30.3z"/>
	<path style="fill:#F9C7C7;" d="M50.9,69.39c-6.34,6.34-8.28,6.33-14.65-0.04C25.72,58.81,0,40.73,0,22.75C0,7.46,9.68,0,22,0
		c13.05,0,22,17.15,22,17.15S52.95,0,66,0c12.32,0,22,7.46,22,22.75C88,40.76,61.52,58.78,50.9,69.39z"/>
	<g>
		<path style="fill:#FED7A0;" d="M1113.12,42.71c-7.75,11.36-25.18-2.12-16.47-12.41C1104.93,19.92,1120.76,32.08,1113.12,42.71z"/>
		<path style="fill:#F8F6F1;" d="M1160.56,69.92c-5.43,12.52-25.18,2.69-18.46-9.2C1148.24,49.12,1166.13,58.02,1160.56,69.92z"/>
		<path style="fill:#F8F6F1;" d="M1266.41,95.63c-0.46,13.5-22.41,11.77-20.54-1.83C1247.28,80.82,1267.25,82.38,1266.41,95.63z"/>
		<path style="fill:#FED7A0;" d="M1212.27,87.77c-2.95,13.19-24.21,7.4-19.84-5.63C1196.3,69.63,1215.54,74.94,1212.27,87.77z"/>
	</g>
	<g>
		<path style="fill:#FED7A0;" d="M1316.79,93.79c1.87,13.61-20.08,15.33-20.54,1.83C1295.42,82.38,1315.38,80.82,1316.79,93.79z"/>
		<path style="fill:#F8F6F1;" d="M1370.23,82.14c4.37,13.03-16.9,18.82-19.84,5.63C1347.13,74.94,1366.37,69.63,1370.23,82.14z"/>
		<path style="fill:#F8F6F1;" d="M1466.02,30.3c8.7,10.29-8.73,23.77-16.48,12.41C1441.91,32.08,1457.74,19.92,1466.02,30.3z"/>
		<path style="fill:#FED7A0;" d="M1420.56,60.73c6.72,11.88-13.03,21.72-18.46,9.19C1396.53,58.02,1414.42,49.12,1420.56,60.73z"/>
	</g>
	<path style="fill:#F9C7C7;" d="M1462.9,69.39c-6.34,6.34-8.28,6.33-14.65-0.04c-10.53-10.53-36.25-28.62-36.25-46.6
		C1412,7.46,1421.68,0,1434,0c13.05,0,22,17.15,22,17.15S1464.95,0,1478,0c12.32,0,22,7.46,22,22.75
		C1500,40.76,1473.51,58.78,1462.9,69.39z"/>
	<path style="fill:#E94754;" d="M1111.73,69.39c-6.34,6.34-8.28,6.33-14.65-0.04c-10.53-10.53-36.25-28.62-36.25-46.6
		c0-15.29,9.68-22.75,22-22.75c13.05,0,22,17.15,22,17.15s8.95-17.15,22-17.15c12.32,0,22,7.46,22,22.75
		C1148.83,40.76,1122.35,58.78,1111.73,69.39z"/>
</g>
</svg>
